{"title":"Saboteur(1942)MP-4[DaScubaDude]","uid":12572690,"size":1333060569,"categoryP":"video","categoryS":"movies","magnet":"?xt=urn:btih:805fc7250a07eecbe1b79f4474e95bc24a70c99b&amp;dn=Saboteur%281942%29MP-4%5BDaScubaDude%5D&amp;tr=udp%3A%2F%2Ftracker.leechers-paradise.org%3A6969&amp;tr=udp%3A%2F%2Fzer0day.ch%3A1337&amp;tr=udp%3A%2F%2Fopen.demonii.com%3A1337&amp;tr=udp%3A%2F%2Ftracker.coppersurfer.tk%3A6969&amp;tr=udp%3A%2F%2Fexodus.desync.com%3A6969","seeders":1,"leechers":0,"uploader":"dascuba","files":1,"time":1444863938,"description":"Saboteur (1942)\r\nPG  |  109 min  |  Thriller, War  |  24 April 1942 (USA)\r\n7.2 Your rating:   -/10   Ratings: 7.2/10 from 16,324 users   \r\nReviews: 131 user | 53 critic\r\nAircraft factory worker Barry Kane goes on the run across the United States when he is wrongly accused of starting a fire that killed his best friend.\r\n\r\nDirector: Alfred Hitchcock\r\nWriters: Peter Viertel (original screen play), Joan Harrison (original screen play), 2 more credits »\r\nStaGeneral\r\nComplete name                            : C:SaboteurSABOTEUR_Title1.mp4\r\nFormat                                   : MPEG-4\r\nFormat profile                           : Base Media\r\nCodec ID                                 : isom\r\nFile size                                : 1.24 GiB\r\nDuration                                 : 1h 48mn\r\nOverall bit rate mode                    : Constant\r\nOverall bit rate                         : 1 633 Kbps\r\nMovie name                               : SABOTEUR\r\nGenre                                    : Spy_Film\r\nWriting application                      : Lavf54.6.100\r\n\r\nVideo\r\nID                                       : 1\r\nFormat                                   : MPEG-4 Visual\r\nFormat settings, BVOP                    : No\r\nFormat settings, QPel                    : No\r\nFormat settings, GMC                     : No warppoints\r\nFormat settings, Matrix                  : Default (H.263)\r\nCodec ID                                 : 20\r\nDuration                                 : 1h 48mn\r\nBit rate mode                            : Constant\r\nBit rate                                 : 1 499 Kbps\r\nWidth                                    : 720 pixels\r\nHeight                                   : 540 pixels\r\nDisplay aspect ratio                     : 4:3\r\nFrame rate mode                          : Constant\r\nFrame rate                               : 29.970 fps\r\nColor space                              : YUV\r\nChroma subsampling                       : 4:2:0\r\nBit depth                                : 8 bits\r\nScan type                                : Progressive\r\nCompression mode                         : Lossy\r\nBits/(Pixel*Frame)                       : 0.129\r\nStream size                              : 1.14 GiB (92%)\r\nWriting library                          : Lavc54.23.100\r\n\r\nAudio\r\nID                                       : 2\r\nFormat                                   : MPEG Audio\r\nFormat version                           : Version 1\r\nFormat profile                           : Layer 3\r\nCodec ID                                 : 6B\r\nDuration                                 : 1h 48mn\r\nBit rate mode                            : Constant\r\nBit rate                                 : 128 Kbps\r\nChannel(s)                               : 2 channels\r\nSampling rate                            : 44.1 KHz\r\nCompression mode                         : Lossy\r\nStream size                              : 99.6 MiB (8%)\r\nWriting library                          : LAME3.99.5\r\n\r\nrs: Priscilla Lane, Robert Cummings, Otto Kruger","torrent":{"xt":"urn:btih:805fc7250a07eecbe1b79f4474e95bc24a70c99b","amp;dn":"Saboteur%281942%29MP-4%5BDaScubaDude%5D","amp;tr":["udp%3A%2F%2Ftracker.leechers-paradise.org%3A6969","udp%3A%2F%2Fzer0day.ch%3A1337","udp%3A%2F%2Fopen.demonii.com%3A1337","udp%3A%2F%2Ftracker.coppersurfer.tk%3A6969","udp%3A%2F%2Fexodus.desync.com%3A6969"],"infoHash":"805fc7250a07eecbe1b79f4474e95bc24a70c99b","infoHashBuffer":{"type":"Buffer","data":[128,95,199,37,10,7,238,203,225,183,159,68,116,233,91,194,74,112,201,155]},"announce":[],"urlList":[]}}